<svg width="93" height="88" viewBox="0 0 93 88" fill="none" xmlns="http://www.w3.org/2000/svg">
<path d="M85.8839 5.57886H19.3165C15.3863 5.57886 12.2002 9.21335 12.2002 13.6967V79.882C12.2002 84.3654 15.3863 87.9999 19.3165 87.9999H85.8839C89.8141 87.9999 93.0002 84.3654 93.0002 79.882V13.6967C93.0002 9.21335 89.8141 5.57886 85.8839 5.57886Z" fill="#4A3270" fill-opacity="0.5"/>
<path d="M78.6698 1H8.13026C4.19233 1 1 4.61851 1 9.08217V72.5915C1 77.0552 4.19233 80.6737 8.13026 80.6737H78.6698C82.6077 80.6737 85.8 77.0552 85.8 72.5915V9.08217C85.8 4.61851 82.6077 1 78.6698 1Z" fill="white" stroke="#4A3270" stroke-width="0.75" stroke-miterlimit="10"/>
<path d="M76.2801 23.8943H11.3198C9.15488 23.8943 7.3999 25.8623 7.3999 28.2899V62.5408C7.3999 64.9684 9.15488 66.9364 11.3198 66.9364H76.2801C78.4449 66.9364 80.1999 64.9684 80.1999 62.5408V28.2899C80.1999 25.8623 78.4449 23.8943 76.2801 23.8943Z" fill="#4A3270" fill-opacity="0.5"/>
<path d="M15.1462 43.6534C15.9392 43.6534 16.582 42.9205 16.582 42.0164C16.582 41.1123 15.9392 40.3794 15.1462 40.3794C14.3533 40.3794 13.7104 41.1123 13.7104 42.0164C13.7104 42.9205 14.3533 43.6534 15.1462 43.6534Z" fill="#D3085D"/>
<path d="M15.1462 51.3514C15.9392 51.3514 16.582 50.6185 16.582 49.7144C16.582 48.8103 15.9392 48.0774 15.1462 48.0774C14.3533 48.0774 13.7104 48.8103 13.7104 49.7144C13.7104 50.6185 14.3533 51.3514 15.1462 51.3514Z" fill="#D3085D"/>
<path d="M15.1462 58.6941C15.9392 58.6941 16.582 57.9612 16.582 57.0572C16.582 56.1531 15.9392 55.4202 15.1462 55.4202C14.3533 55.4202 13.7104 56.1531 13.7104 57.0572C13.7104 57.9612 14.3533 58.6941 15.1462 58.6941Z" fill="#D3085D"/>
<path d="M27.1664 29.3899H16.4332C14.9788 29.3899 13.7998 30.8249 13.7998 32.5952C13.7998 34.3654 14.9788 35.8004 16.4332 35.8004H27.1664C28.6208 35.8004 29.7998 34.3654 29.7998 32.5952C29.7998 30.8249 28.6208 29.3899 27.1664 29.3899Z" fill="#4A3270"/>
<path d="M35.0857 9.24243H10.1141C8.61507 9.24243 7.3999 10.6775 7.3999 12.4477C7.3999 14.2179 8.61507 15.653 10.1141 15.653H35.0857C36.5847 15.653 37.7999 14.2179 37.7999 12.4477C37.7999 10.6775 36.5847 9.24243 35.0857 9.24243Z" fill="#4A3270"/>
<path d="M73.1586 40.3794H20.0416C19.2455 40.3794 18.6001 41.1994 18.6001 42.211C18.6001 43.2225 19.2455 44.0426 20.0416 44.0426H73.1586C73.9547 44.0426 74.6001 43.2225 74.6001 42.211C74.6001 41.1994 73.9547 40.3794 73.1586 40.3794Z" fill="#D3085D"/>
<path d="M53.1812 47.7053H20.0189C19.2353 47.7053 18.6001 48.5253 18.6001 49.5369C18.6001 50.5485 19.2353 51.3685 20.0189 51.3685H53.1812C53.9649 51.3685 54.6001 50.5485 54.6001 49.5369C54.6001 48.5253 53.9649 47.7053 53.1812 47.7053Z" fill="#D3085D"/>
<path d="M24.2001 44.0426C25.0838 44.0426 25.8001 43.2225 25.8001 42.211C25.8001 41.1994 25.0838 40.3794 24.2001 40.3794C23.3164 40.3794 22.6001 41.1994 22.6001 42.211C22.6001 43.2225 23.3164 44.0426 24.2001 44.0426Z" fill="#D3085D"/>
<path d="M24.2001 51.3685C25.0838 51.3685 25.8001 50.5485 25.8001 49.5369C25.8001 48.5254 25.0838 47.7053 24.2001 47.7053C23.3164 47.7053 22.6001 48.5254 22.6001 49.5369C22.6001 50.5485 23.3164 51.3685 24.2001 51.3685Z" fill="#D3085D"/>
<path d="M53.1812 55.0312H20.0189C19.2353 55.0312 18.6001 55.8513 18.6001 56.8628C18.6001 57.8744 19.2353 58.6944 20.0189 58.6944H53.1812C53.9649 58.6944 54.6001 57.8744 54.6001 56.8628C54.6001 55.8513 53.9649 55.0312 53.1812 55.0312Z" fill="#D3085D"/>
<path d="M24.2001 58.6944C25.0838 58.6944 25.8001 57.8744 25.8001 56.8628C25.8001 55.8513 25.0838 55.0312 24.2001 55.0312C23.3164 55.0312 22.6001 55.8513 22.6001 56.8628C22.6001 57.8744 23.3164 58.6944 24.2001 58.6944Z" fill="#D3085D"/>
</svg>
