<svg width="116" height="100" viewBox="0 0 116 100" fill="none" xmlns="http://www.w3.org/2000/svg">
<path d="M76.2131 96.9929C78.16 96.373 79.3683 95.4818 80.1888 92.576C81.0093 89.6701 80.1366 70.5458 79.2079 64.3505C78.2793 58.1553 76.5936 51.9058 75.7731 50.4877C74.9526 49.0696 72.0324 46.8961 72.0324 46.8961L63.9915 42.8085C63.9915 42.8085 58.7031 46.7256 51.7699 47.2409C41.4205 48.0119 38.9068 41.5493 38.9068 41.5493C38.9068 41.5493 31.1718 43.7384 27.0097 46.7024C22.8513 49.6663 20.2369 62.0646 18.8458 67.2254C17.4546 72.3862 15.9106 85.6252 16.6006 88.9689C18.1595 96.1211 20.0094 98.903 24.0186 98.6008C25.7342 98.4923 27.6698 97.8724 30.4818 96.4078L67.6203 96.3536C68.0082 97.3609 73.237 97.9305 76.2169 96.9812L76.2131 96.9929Z" fill="#D3085D" fill-opacity="0.84"/>
<path d="M62.5816 5.22163C62.5816 5.22163 65.8337 3.85782 67.5829 5.33399C69.5185 6.96901 72.1515 11.692 71.5362 19.3673C70.9543 26.6048 73.8298 32.1685 71.7152 37.3525C70.5105 40.3049 66.8295 42.5017 65.0132 43.8694C62.686 45.6245 57.7295 39.2549 57.7295 39.2549V4.83418L62.5853 5.22163H62.5816Z" fill="#FBA457"/>
<path d="M97.4975 76.9966C95.1368 76.2876 94.0552 73.7769 94.3014 71.4057L104.315 66.8804V71.1384L99.7427 75.6793L97.4975 76.9966Z" fill="#EDB095"/>
<path d="M86.8719 73.564L71.5361 81.0688C71.5361 81.0688 72.8564 97.4423 76.2167 96.9928C80.2893 96.4504 91.5935 81.6074 91.5935 81.6074L86.8756 73.564H86.8719Z" fill="#CBEEE1"/>
<path d="M64.3794 41.9566C64.3794 41.9566 62.0112 40.2712 59.311 39.7637L61.2429 42.9562L64.3794 41.9566Z" fill="#1689AD"/>
<path d="M42.7744 38.7324L47.7496 37.7754C47.7496 37.7754 45.8065 40.8943 44.6802 40.7355C43.0429 39.0888 42.7744 38.7363 42.7744 38.7363V38.7324Z" fill="#1689AD"/>
<path d="M1 96.3652H19.2038" stroke="#222222" stroke-width="0.75" stroke-linecap="round" stroke-linejoin="round"/>
<path d="M77.5967 96.4512H100.104" stroke="#222222" stroke-width="0.75" stroke-linecap="round" stroke-linejoin="round"/>
<path d="M1 99H100.104" stroke="#222222" stroke-width="0.75" stroke-linecap="round" stroke-linejoin="round"/>
<path d="M52.3778 49.3534C59.6504 49.5083 62.5818 43.716 62.5818 43.716C60.7394 42.3212 59.4564 38.6792 59.9935 36.4475C59.9935 36.4475 59.9898 36.37 55.988 35.2077C51.99 34.0454 48.9877 31.1821 48.9877 31.1821L48.2082 36.0291C48.2082 36.0291 47.3243 39.8106 44.1841 40.783C44.1841 40.783 45.1015 49.1984 52.3741 49.3534H52.3778Z" fill="#FFC5A9"/>
<path d="M66.3041 43.9874C66.498 45.1924 65.629 50.2641 59.1247 52.7282C52.6205 55.1924 46.1833 51.7596 44.0799 49.2373C44.0799 49.2373 39.9774 44.7933 38.8996 41.5427C38.8436 40.729 42.3382 38.0363 43.3004 38.9003C44.2626 39.7643 48.8649 46.1533 54.5636 45.7271C60.2622 45.3009 61.713 41.7713 63.2421 41.655C64.8533 41.5349 66.3003 43.9874 66.3003 43.9874H66.3041Z" fill="#C4C4C4"/>
<path d="M64.6851 8.15923C64.6851 8.15923 64.838 5.76094 55.6074 7.76403C46.3769 9.76326 46.7834 21.6114 47.1601 27.0472C47.5367 32.4831 51.9338 33.9825 51.9338 33.9825C51.9338 33.9825 59.6651 37.7214 62.093 37.3223C64.521 36.9232 65.5503 35.296 66.4827 33.3432C67.4151 31.3905 68.2803 28.7094 68.4034 26.5784C68.5227 24.4436 67.9521 22.9171 68.105 22.2468C68.2579 21.5765 69.1083 19.9686 69.2015 18.2522C69.2947 16.5358 68.5712 12.7117 67.3256 10.7861C66.0799 8.86051 64.6925 8.15923 64.6925 8.15923H64.6851Z" fill="#FFDDC5"/>
<path d="M69.198 18.2519C69.198 18.2519 68.8363 17.7211 67.7584 17.9613C66.6806 18.2015 65.752 19.1585 65.5468 19.4065C65.3417 19.6545 65.3044 19.9528 65.6997 19.8211C66.0951 19.6893 66.8671 18.6704 67.8293 18.4689C68.7915 18.2713 69.0675 18.6355 69.1421 18.5425C69.2167 18.4495 69.3099 18.341 69.2018 18.248L69.198 18.2519Z" fill="#BF8113"/>
<path d="M55.1862 18.8532C55.1638 18.551 58.1623 18.1713 60.1539 18.4773C61.5785 18.6943 62.1715 19.6629 62.1715 19.6629C62.3804 20.0078 62.2872 20.5502 62.041 20.3255C61.7949 20.1007 61.8806 19.6397 60.4933 19.0856C59.1096 18.5316 55.2048 19.1515 55.1862 18.8493V18.8532Z" fill="#BF8113"/>
<path d="M64.8789 20.519C64.8789 20.519 65.2705 21.6891 65.6099 23.4791C65.9493 25.2691 66.4752 28.8259 65.7442 29.256C65.0169 29.686 64.23 29.2017 63.6258 29.1397C63.0216 29.0777 62.5032 29.3451 62.0967 28.9809C61.6902 28.6167 61.9513 27.7914 62.4212 27.4505C62.8874 27.1056 63.6221 27.156 63.6221 27.156" stroke="#222222" stroke-width="0.75" stroke-miterlimit="10" stroke-linecap="round"/>
<path d="M61.2095 22.2238C61.2915 22.127 61.3288 20.6624 59.9713 20.1394C58.6137 19.6202 56.5215 20.1161 56.4953 20.2285C56.4692 20.3408 58.6697 19.9379 59.7736 20.4106C61.0827 20.9569 61.1274 22.3168 61.2095 22.2199V22.2238Z" fill="#031001"/>
<path d="M65.7519 22.0532C65.6624 22.0609 65.6848 21.2318 66.2815 20.6467C66.9603 19.9803 68.1947 20.1818 68.2059 20.3135C68.2171 20.4453 67.1616 20.174 66.468 20.7978C65.9085 21.2976 65.8414 22.0493 65.7519 22.0532Z" fill="#031001"/>
<path d="M91.6831 81.5525C91.6831 81.5525 97.7548 78.4645 97.6541 77.062C97.6541 77.062 96.3525 76.5583 95.159 74.098C93.9619 71.6377 94.3199 70.3901 94.3199 70.3901C92.7348 70.0182 86.872 73.5633 86.872 73.5633L86.7788 73.6176C86.9243 76.8721 88.5279 79.5339 91.5936 81.6067L91.6868 81.5525H91.6831Z" fill="#C4C4C4"/>
<path d="M61.0189 22.878C61.0189 22.878 60.4558 23.1764 59.0348 23.0485C57.6139 22.9206 55.9878 21.0454 55.9878 21.0454C55.9878 21.0454 58.6991 20.7509 59.7136 21.1771C60.728 21.6033 61.0189 22.878 61.0189 22.878Z" fill="white"/>
<path d="M60.9297 23.0374C61.1385 23.0219 61.3213 21.72 59.9787 21.0304C58.6398 20.3407 55.7531 20.7785 55.5256 21.0498C55.2981 21.321 57.9237 21.135 59.0724 21.4333C60.4598 21.7588 60.7171 23.0529 60.9259 23.0374H60.9297Z" fill="#031001"/>
<path d="M60.2285 21.775C60.2285 21.775 60.1837 23.2628 58.9306 23.0497C57.6775 22.8366 58.0505 21.1357 58.0505 21.1357L60.2285 21.7789V21.775Z" fill="#031001"/>
<path d="M65.8413 22.7972C65.8413 22.7972 66.3522 21.4101 67.2063 21.0769C68.0641 20.7437 68.3475 20.9297 68.3475 20.9297C68.3475 20.9297 67.7508 22.77 66.9117 22.9483C66.0725 23.1265 65.8413 22.7972 65.8413 22.7972Z" fill="white"/>
<path d="M65.7967 22.6922C65.7743 22.3784 66.2703 21.3827 66.9939 20.9216C67.4414 20.6388 67.9859 20.6194 68.2656 20.8247C68.6759 21.1231 67.8927 20.8635 67.0685 21.4485C66.2442 22.0336 65.8228 23.1572 65.793 22.6922H65.7967Z" fill="#031001"/>
<path d="M67.5382 20.9834C67.5382 20.9834 67.803 22.6029 67.031 22.909C66.4678 23.1299 66.1769 22.6882 66.1098 22.5254C66.0427 22.3627 66.0837 22.1457 66.0837 22.1457L67.5382 20.9834Z" fill="#031001"/>
<path d="M45.6872 64.3091C45.6872 64.3091 45.9296 65.6342 45.4149 67.8891C45.0606 69.435 36.4529 87.7496 30.4819 96.4245" stroke="#C4C4C4" stroke-width="0.75" stroke-linecap="round" stroke-linejoin="round"/>
<path d="M18.6182 84.804C19.1403 82.305 21.8778 77.8648 25.8273 75.761C25.8273 75.761 31.4999 64.1415 33.2416 62.057C34.9795 59.9687 36.3222 59.3682 36.3222 59.3682" stroke="#C4C4C4" stroke-width="0.75" stroke-linecap="round" stroke-linejoin="round"/>
<path d="M30.478 96.4195L67.6165 96.3652" stroke="#222222" stroke-width="0.75" stroke-linecap="round" stroke-linejoin="round"/>
<path d="M60.4971 31.5844C61.6569 31.4991 62.8467 31.2202 63.2718 31.1853C63.697 31.1504 64.1632 31.5418 64.1632 31.5418C64.1632 31.5418 64.5697 31.1969 64.842 31.2589C65.2037 31.3093 65.4946 32.0803 65.5282 31.9912C65.5282 31.9912 64.8643 33.1497 63.9058 33.3085C62.373 33.51 60.7731 31.813 60.4971 31.5805V31.5844Z" fill="#C42C2C"/>
<path d="M65.7033 32.0838C65.4273 32.1071 65.2707 32.1381 64.9313 32.1691C64.5919 32.2001 64.4539 32.3977 64.2264 32.417C63.9989 32.4364 63.7565 32.1846 63.3239 32.0606C62.8913 31.9366 62.5855 32.0567 61.6717 31.987C60.758 31.9172 60.3291 31.5879 60.3291 31.5879" stroke="#222222" stroke-width="0.75" stroke-linecap="round" stroke-linejoin="round"/>
<path d="M115.91 43.9247L114.918 43.0878C114.772 42.9677 114.582 42.925 114.403 42.9793L96.11 48.5353C95.737 48.6476 95.4312 48.9188 95.2634 49.283L81.1024 80.1974C81.0129 80.3911 81.0577 80.6274 81.2106 80.7708L82.1243 81.6309L96.1473 50.6507C96.3226 50.2671 96.6433 49.9804 97.0349 49.8526L115.91 43.9247Z" fill="#C4C4C4"/>
<path d="M115.97 44.2464L100.261 74.4246C100.131 74.6764 99.918 74.8702 99.6569 74.9709L82.4191 81.7047C82.214 81.7861 82.0163 81.5652 82.1133 81.3599L96.1363 50.6858C96.319 50.2828 96.6584 49.9767 97.0686 49.8489L115.683 43.89C115.892 43.8241 116.074 44.0527 115.97 44.2542V44.2464Z" fill="#16A4D1"/>
<path d="M102.141 60.9321C102.758 59.8221 102.75 58.6178 102.124 58.2423C101.498 57.8667 100.49 58.4621 99.8733 59.5722C99.2564 60.6822 99.2639 61.8865 99.89 62.262C100.516 62.6375 101.524 62.0421 102.141 60.9321Z" fill="#C4C4C4"/>
<path d="M112.836 47.906C113.203 47.1109 113.137 46.2857 112.689 46.063C112.242 45.8402 111.581 46.3042 111.215 47.0994C110.848 47.8945 110.914 48.7196 111.362 48.9424C111.81 49.1651 112.47 48.7011 112.836 47.906Z" fill="#C4C4C4"/>
<path d="M97.4975 76.9966C97.4975 76.9966 98.3814 76.9308 99.7912 76.0629C101.201 75.195 102.406 73.3391 102.95 73.1648C103.495 72.9904 105.214 72.6688 105.792 72.4829C106.37 72.2969 106.284 70.5999 106.031 70.4604C106.348 70.1388 106.236 69.5654 106.236 69.5654C106.534 68.9804 106.534 67.9962 106.37 67.4499C106.612 66.3147 106.56 65.0749 106.266 64.6642C106.266 64.6642 105.62 63.8041 104.83 62.8897C104.039 61.9753 103.472 60.6038 103.058 60.6193C102.644 60.6348 102.558 61.5879 102.797 62.3899C103.036 63.1919 104.479 65.2376 104.479 65.2376C104.479 65.2376 102.174 65.3849 101.223 65.3965C100.272 65.4081 99.8583 65.226 99.6606 65.6096C99.463 65.9931 99.9776 66.6789 99.9776 66.6789C99.9776 66.6789 98.7879 66.4271 98.6872 67.0935C98.5865 67.7599 99.2951 68.2248 100.06 68.3953C100.824 68.5658 103.413 68.9377 103.659 69.1934C103.905 69.4492 103.953 70.1892 103.953 70.1892C103.953 70.1892 101.585 69.8599 101.026 70.0381C100.466 70.2163 100.328 70.9021 100.716 71.1152C101.104 71.3283 101.854 71.4058 101.854 71.4058L100.507 73.9745C100.097 74.7611 99.5226 75.443 98.829 75.9699L97.4863 76.9927L97.4975 76.9966Z" fill="#FFDDC5"/>
<path d="M100.104 66.6899C101.943 66.872 103.7 66.5427 104.315 66.8837C104.93 67.2246 105.423 68.3521 106.172 69.4679" stroke="#EDB095" stroke-width="0.75" stroke-linecap="round" stroke-linejoin="round"/>
<path d="M67.8404 59.3682C69.1868 63.1535 70.1117 65.2612 70.1117 68.8102C70.1117 74.3972 68.1015 74.9513 66.9789 81.6115C66.4083 85.0016 67.6204 96.3693 67.6204 96.3693" stroke="#C4C4C4" stroke-width="0.75" stroke-linecap="round" stroke-linejoin="round"/>
<path d="M80.226 76.8149C80.226 76.8149 77.2387 77.8959 75.6648 79.0428C73.8411 80.3717 69.3358 85.9509 70.7903 91.1582" stroke="#C4C4C4" stroke-width="0.75" stroke-linecap="round" stroke-linejoin="round"/>
<path d="M47.0372 57.7441L49.5808 53.5365C51.1621 53.4822 53.4371 52.781 55.9881 51.824C56.8608 52.2695 58.2071 52.6066 58.6286 52.6066C59.05 52.6066 59.6355 51.2505 59.6355 51.2505C60.5194 50.8166 60.5828 50.0998 60.7954 49.5845C61.4108 49.0072 61.5264 47.9146 61.146 47.5194C60.8849 47.2482 57.051 46.1246 57.051 45.3381C57.051 45.3381 61.0565 46.9654 61.3026 46.5121C61.5488 46.0588 61.7837 44.9468 61.0938 44.7802C60.4038 44.6136 56.361 42.0138 55.7046 41.9325C55.0482 41.8511 54.7909 41.5373 53.4893 41.9325C52.1877 42.3277 46.7612 45.9115 45.385 48.3718L41.0737 53.8852C41.0737 53.8852 41.7376 55.5512 43.565 56.6477C45.3888 57.7441 47.0335 57.7441 47.0335 57.7441H47.0372Z" fill="#FFDDC5"/>
<path d="M60.6423 49.6314C60.4334 49.4764 56.9388 48.1513 56.4727 47.791" stroke="#EDB095" stroke-width="0.75" stroke-linecap="round" stroke-linejoin="round"/>
<path d="M59.4566 51.2285C59.4566 51.2285 57.4576 50.4847 55.9956 49.7446" stroke="#EDB095" stroke-width="0.75" stroke-linecap="round" stroke-linejoin="round"/>
<path d="M45.7019 64.3122C45.7019 64.3122 48.3536 58.6632 47.8725 57.1987C46.3471 57.6133 43.7364 56.7958 42.2782 55.4823C40.82 54.1689 40.8685 53.394 40.8685 53.394C40.5701 53.3669 39.9435 53.7388 39.6153 54.0681C38.1496 55.5288 36.3408 59.3761 36.3408 59.3761C36.3408 59.3761 36.9413 62.0805 39.5519 63.4676C42.1626 64.8546 45.7056 64.3161 45.7056 64.3161L45.7019 64.3122Z" fill="#C4C4C4"/>
<path d="M65.8788 9.79051C66.2443 9.41081 66.5091 3.89745 63.0108 1.81687C60.2249 0.158599 51.5724 -1.6159 46.3772 2.6615C40.5853 7.43096 33.4992 20.484 34.5024 30.608C35.2148 37.7951 38.9032 39.2558 41.0776 41.5572C42.5656 43.1264 46.8471 44.8389 49.2862 40.9373C56.335 29.6549 47.0112 28.6281 50.0097 19.9222C51.5127 18.3608 53.1612 17.644 55.5145 15.2031C58.114 12.5026 60.1205 10.2438 63.4957 9.73239C64.6817 9.55029 65.5171 10.1702 65.8826 9.78664L65.8788 9.79051Z" fill="#FBA457"/>
<path d="M50.0097 19.8365C50.0097 19.8365 47.7533 16.7795 45.6312 18.9802C43.6621 21.0259 45.7767 25.9233 47.1641 27.0469C48.5515 28.1704 50.2745 26.7911 50.2745 26.7911L50.0097 19.8365Z" fill="#FFDDC5"/>
<path d="M65.0322 9.17048C65.0322 9.17048 62.9586 4.83496 57.7261 4.83496" stroke="#BE8115" stroke-miterlimit="10" stroke-linecap="round"/>
<path d="M64.1557 9.17054C57.2785 5.71452 50.2707 8.08569 45.3813 17.1364" stroke="#BE8115" stroke-miterlimit="10" stroke-linecap="round"/>
<path d="M56.928 21.8758L49.3198 18.8809" stroke="#878383" stroke-width="0.75" stroke-linecap="round" stroke-linejoin="round"/>
<path d="M62.4861 20.2626L58.7489 20.0937C57.7941 20.0506 56.9864 20.8197 56.9448 21.8117L56.8664 23.6851C56.8249 24.6771 57.5653 25.5162 58.5201 25.5593L62.2573 25.7281C63.2121 25.7713 64.0198 25.0021 64.0613 24.0102L64.1397 22.1367C64.1813 21.1448 63.4409 20.3057 62.4861 20.2626Z" stroke="#878383" stroke-width="0.75" stroke-linecap="round" stroke-linejoin="round"/>
<path d="M70.1707 20.1869L68.0693 20.092C67.1597 20.0509 66.3903 20.7836 66.3507 21.7285L66.2652 23.7723C66.2256 24.7172 66.9309 25.5165 67.8405 25.5576L69.9419 25.6525C70.8515 25.6936 71.6209 24.9609 71.6604 24.016L71.746 21.9722C71.7855 21.0273 71.0803 20.228 70.1707 20.1869Z" stroke="#878383" stroke-width="0.75" stroke-linecap="round" stroke-linejoin="round"/>
<path d="M64.1636 22.2586C64.1636 22.2586 65.5472 21.2977 66.323 22.2586" stroke="#878383" stroke-width="0.75" stroke-linecap="round" stroke-linejoin="round"/>
<path d="M71.7118 22.2978L68.4224 21.2788" stroke="#878383" stroke-width="0.75" stroke-linecap="round" stroke-linejoin="round"/>
<path d="M46.8472 19.1323C46.8472 19.1323 49.0513 19.3687 49.3198 22.7704C49.3198 22.7704 48.0033 23.1966 48.6634 24.6379" stroke="#EDB095" stroke-width="0.75" stroke-linecap="round" stroke-linejoin="round"/>
</svg>
