<svg width="105" height="67" viewBox="0 0 105 67" fill="none" xmlns="http://www.w3.org/2000/svg">
<path d="M99.0583 0H5.94171C2.6602 0 0 2.59236 0 5.79019V61.2098C0 64.4076 2.6602 67 5.94171 67H99.0583C102.34 67 105 64.4076 105 61.2098V5.79019C105 2.59236 102.34 0 99.0583 0Z" fill="#D3085D" fill-opacity="0.43"/>
<path d="M41.8882 50.8276H6.51219C5.7102 50.8276 5.06006 51.423 5.06006 52.1574V52.454C5.06006 53.1885 5.7102 53.7838 6.51219 53.7838H41.8882C42.6902 53.7838 43.3404 53.1885 43.3404 52.454V52.1574C43.3404 51.423 42.6902 50.8276 41.8882 50.8276Z" fill="#D3085D"/>
<path d="M35.1135 56.5254H6.51219C5.7102 56.5254 5.06006 57.1208 5.06006 57.8552V58.1518C5.06006 58.8862 5.7102 59.4816 6.51219 59.4816H35.1135C35.9155 59.4816 36.5656 58.8862 36.5656 58.1518V57.8552C36.5656 57.1208 35.9155 56.5254 35.1135 56.5254Z" fill="#D3085D"/>
<path d="M97.1081 55.9883H83.3855C82.4601 55.9883 81.71 56.6752 81.71 57.5226V59.5991C81.71 60.4465 82.4601 61.1335 83.3855 61.1335H97.1081C98.0335 61.1335 98.7836 60.4465 98.7836 59.5991V57.5226C98.7836 56.6752 98.0335 55.9883 97.1081 55.9883Z" fill="#D3085D"/>
<path d="M7.38379 37.167C7.38379 37.167 17.2974 23.5625 24.0162 23.5625C31.1652 23.5625 35.6779 29.8891 42.0729 29.8891C49.5067 29.8891 53.338 18.2792 61.9168 18.2792C70.4955 18.2792 74.7457 24.9383 82.4644 24.9383C90.183 24.9383 95.9245 12.7095 95.9245 12.7095" stroke="#D3085D" stroke-width="0.75" stroke-linecap="round" stroke-linejoin="round"/>
<path d="M8.09902 38.6813C9.29603 38.6813 10.2664 37.7928 10.2664 36.6968C10.2664 35.6009 9.29603 34.7124 8.09902 34.7124C6.90201 34.7124 5.93164 35.6009 5.93164 36.6968C5.93164 37.7928 6.90201 38.6813 8.09902 38.6813Z" fill="#FBF9ED"/>
<path d="M24.2011 25.5978C25.3981 25.5978 26.3685 24.7093 26.3685 23.6133C26.3685 22.5174 25.3981 21.6289 24.2011 21.6289C23.0041 21.6289 22.0337 22.5174 22.0337 23.6133C22.0337 24.7093 23.0041 25.5978 24.2011 25.5978Z" fill="#FBF9ED"/>
<path d="M42.1347 31.5816C43.3317 31.5816 44.302 30.6932 44.302 29.5972C44.302 28.5013 43.3317 27.6128 42.1347 27.6128C40.9377 27.6128 39.9673 28.5013 39.9673 29.5972C39.9673 30.6932 40.9377 31.5816 42.1347 31.5816Z" fill="#FBF9ED"/>
<path d="M61.6659 20.2892C62.8629 20.2892 63.8333 19.4007 63.8333 18.3047C63.8333 17.2088 62.8629 16.3203 61.6659 16.3203C60.4689 16.3203 59.4985 17.2088 59.4985 18.3047C59.4985 19.4007 60.4689 20.2892 61.6659 20.2892Z" fill="#FBF9ED"/>
<path d="M81.7108 26.9225C82.9078 26.9225 83.8782 26.034 83.8782 24.938C83.8782 23.8421 82.9078 22.9536 81.7108 22.9536C80.5138 22.9536 79.5435 23.8421 79.5435 24.938C79.5435 26.034 80.5138 26.9225 81.7108 26.9225Z" fill="#FBF9ED"/>
<path d="M95.9247 14.6935C97.1217 14.6935 98.0921 13.805 98.0921 12.709C98.0921 11.6131 97.1217 10.7246 95.9247 10.7246C94.7277 10.7246 93.7573 11.6131 93.7573 12.709C93.7573 13.805 94.7277 14.6935 95.9247 14.6935Z" fill="#FBF9ED"/>
</svg>
