<svg width="97" height="89" viewBox="0 0 97 89" fill="none" xmlns="http://www.w3.org/2000/svg">
<path d="M88.8011 88H8.19891C4.23462 88 1 85.09 1 81.5386V37.7671C1 33.716 3.33946 29.9553 7.18339 27.8285L41.8164 8.68057C46.0063 6.36472 51.3021 6.37147 55.4845 8.70082L89.8467 27.8217C93.6681 29.9485 96 33.7025 96 37.7401V81.5318C96 85.09 92.7579 87.9933 88.8011 87.9933V88Z" fill="#4A3270" stroke="#4A3270" stroke-width="0.75" stroke-linecap="round" stroke-linejoin="round"/>
<path d="M89.3912 84.2753H5.13037C8.18935 69.4456 10.632 36.608 8.62527 2.50704C21.5601 2.50704 74.5999 1.0019 74.5999 1.0019C78.9065 0.85407 89.0154 9.3877 89.0154 12.0956C89.0154 40.1827 89.3912 84.2821 89.3912 84.2821V84.2753Z" fill="white" stroke="#4A3270" stroke-width="0.75" stroke-miterlimit="10"/>
<path d="M1.82617 84.343L42.5506 59.7625C46.3825 57.7543 51.1194 57.7543 54.9513 59.7625L96.0001 83.4475C95.3061 85.5575 92.6661 87.9999 89.1662 87.9999H8.33575C4.89616 87.9999 2.7615 86.1681 1.82617 84.343Z" fill="#4A3270" fill-opacity="0.42" stroke="#4A3270" stroke-width="0.75" stroke-linecap="round" stroke-linejoin="round"/>
<path d="M55.522 60.0182L96.0002 38.1797V81.5843C96.0002 82.2993 95.8959 82.9667 95.6126 83.5387L55.522 60.0182Z" fill="#4A3270" fill-opacity="0.42" stroke="#4A3270" stroke-width="0.75" stroke-linecap="round" stroke-linejoin="round"/>
<path d="M89.3481 12.8974C89.3481 8.87422 78.482 8.74588 78.482 8.74588C79.5109 3.97834 76.9868 1.02028 74.522 1.02028C74.522 1.02028 77.8158 0.46203 83.7448 5.20391C90.2585 10.395 89.3481 12.891 89.3481 12.891V12.8974Z" fill="#4A3270" stroke="#4A3270" stroke-width="0.75" stroke-miterlimit="10"/>
<path d="M43.3579 9.92285H20.5991C18.8997 9.92285 17.522 11.1851 17.522 12.7421V13.0523C17.522 14.6093 18.8997 15.8716 20.5991 15.8716H43.3579C45.0573 15.8716 46.435 14.6093 46.435 13.0523V12.7421C46.435 11.1851 45.0573 9.92285 43.3579 9.92285Z" fill="#83BAA0"/>
<path d="M79.2337 25.0207C79.2337 25.0207 56.5604 25.0207 49.3263 25.2795C42.0922 25.5383 19.4189 25.5383 19.4189 25.5383C18.3726 25.5383 17.522 24.8165 17.522 23.938C17.522 23.0596 18.3726 22.3378 19.4189 22.3378C19.4189 22.3378 41.6858 22.0791 49.3263 22.0791C56.9669 22.0791 79.2337 21.8203 79.2337 21.8203C80.28 21.8203 81.1307 22.5421 81.1307 23.1618V23.6725C81.1307 24.8097 80.28 25.0139 79.2337 25.0139V25.0207Z" fill="#4A3270"/>
<path d="M79.2337 33.2004C79.2337 33.2004 56.5604 33.2004 49.3263 33.4592C42.0922 33.718 19.4189 33.7179 19.4189 33.7179C18.3726 33.7179 17.522 32.9962 17.522 32.1177C17.522 31.2393 18.3726 30.5175 19.4189 30.5175C19.4189 30.5175 41.6858 30.2588 49.3263 30.2588C56.9669 30.2588 79.2337 30 79.2337 30C80.28 30 81.1307 30.7218 81.1307 31.6002C81.1307 32.4786 80.28 33.2004 79.2337 33.2004Z" fill="#4A3270"/>
<path d="M79.2337 41.3801C79.2337 41.3801 56.5604 41.3801 49.3263 41.6389C42.0922 41.8976 19.4189 41.8976 19.4189 41.8976C18.3726 41.8976 17.522 41.1758 17.522 40.2974C17.522 39.419 18.3726 38.6972 19.4189 38.6972C19.4189 38.6972 41.6858 38.4384 49.3263 38.4384C56.9669 38.4384 79.2337 38.1797 79.2337 38.1797C80.28 38.1797 81.1307 38.9015 81.1307 39.7799C81.1307 40.6583 80.28 41.3801 79.2337 41.3801Z" fill="#4A3270"/>
<path d="M57.7408 50.5424C57.7408 50.5424 42.3197 50.2643 35.0587 50.5424C27.7977 50.8205 19.426 50.8205 19.426 50.8205C18.3758 50.8205 17.522 50.0447 17.522 49.1006C17.522 48.1564 18.3758 47.3807 19.426 47.3807C27.3897 47.2855 16.2375 47.1025 38.3001 47.1025C45.9691 47.1025 57.7484 47.1025 57.7484 47.1025C58.7986 47.1025 59.6524 47.8783 59.6524 48.8225C59.6524 49.7666 58.7986 50.5424 57.7484 50.5424H57.7408Z" fill="#4A3270"/>
<path d="M1 38.1797L42.3043 59.6123L1.71163 84.2823C1.27716 83.5086 1.03745 82.5584 1 81.4386V38.1797Z" fill="#4A3270" fill-opacity="0.42" stroke="#4A3270" stroke-width="0.75" stroke-linecap="round" stroke-linejoin="round"/>
</svg>
